<svg fill="none" height="84" viewBox="0 0 751 84" width="751" xmlns="http://www.w3.org/2000/svg"><path d="m.648203 77.442c0 3.604 3.285997 6.042 6.571997 6.042s6.466-2.438 6.466-6.042c0-2.438-1.166-14.84-1.166-21.412l-.318-30.422h.636c0 25.016 11.448 57.876 33.072 57.876 9.54 0 13.886-7.42 13.886-17.914v-30.422c0-6.572 1.166-24.274 1.166-26.712 0-3.604-3.18-6.042-6.466-6.042s-6.572 2.438-6.572 6.042c0 2.544 1.166 19.716 1.166 26.712 0 32.542.318 37.842-8.056 37.842-17.066 0-23.214-39.856-23.214-59.042 0-8.374-4.028-11.554-8.162-11.554-4.876 0-9.009997 2.438-9.009997 11.554 0 5.512 1.165997 14.204 1.165997 21.2v20.882c0 6.996-1.165997 18.868-1.165997 21.412zm71.817897 4.558h50.3499v-9.328h-39.6439v-27.878h34.9799v-9.01h-34.9799v-24.062h39.6439v-9.22201h-50.3499zm101.7159 1.802c-11.448 0-13.78-13.462-21.094-13.462-8.162 0-7.314 13.462-13.144 13.462-2.65 0-6.572-5.088-6.572-13.462 0-18.656 15.158-11.554 15.158-18.55 0-9.01-15.264-6.36-15.264-35.828 0-6.784 3.604-13.78 13.144-13.78 5.83 0 8.692 3.70999 8.692 8.798 0 14.31-11.448 15.052-11.448 24.486 0 11.024 17.702 1.802 17.702 12.084 0 9.54-14.734 10.494-14.734 15.794 0 1.272.636 2.332 1.696 2.332 3.286 0 4.452-5.3 13.25-5.3 4.346 0 8.162 12.084 13.356 12.084 6.042 0 7.95-6.996 7.95-12.296 0-14.204-17.384-11.13-17.384-44.096 0-6.78401 3.498-13.78 12.614-13.78 5.83 0 8.692 3.71 8.692 8.374 0 12.932-9.54 12.084-9.54 22.472 0 17.702 15.582 15.264 15.582 25.546 0 8.586 4.452 12.084 9.116 12.084 3.286 0 6.678-3.18 6.678-7.738 0-9.752-12.614-9.646-12.614-15.688 0-10.388 15.582-1.166 15.582-12.19 0-9.434-12.72-10.176-12.72-22.79 0-6.784 3.286-10.494 10.494-10.494 9.01 0 12.614 6.99599 12.614 13.78 0 27.242-13.144 24.91-13.144 33.178 0 5.83 11.342 1.696 11.342 19.186 0 7.526-5.406 15.688-12.084 15.794-9.752.106-8.268-9.01-13.356-9.01-9.964 0-13.462 9.01-20.564 9.01zm112.795-24.91c0-13.568-14.416-19.928-26.5-25.122-8.692-3.71-16.218-7.102-16.218-12.19 0-7.102 5.936-11.13 15.264-11.13 7.632 0 13.886 4.346 16.748 12.084l8.692-4.77c-4.028-10.494-13.992-16.32401-25.44-16.32401-15.794 0-25.97 8.58601-25.97 19.92801 0 11.448 12.19 17.066 23.532 22.048 10.07 4.452 19.504 8.798 19.504 16.642 0 9.222-7.102 14.416-17.596 14.416-8.48 0-16.43-5.406-21.306-14.84l-7.95 6.572c5.512 11.024 16.748 17.278 29.15 17.278 16.96 0 28.09-8.692 28.09-24.592zm22.708 14.098v-70.49001h-10.706v79.50001h50.35v-9.01zm47.374 9.01h50.35v-9.328h-39.644v-27.878h34.98v-9.01h-34.98v-24.062h39.644v-9.22201h-50.35zm57.725-80.56001c-.742 2.12001-1.166 4.028-1.166 5.72401 0 7.632 3.392 11.872 11.978 11.978 4.77 0 13.462-1.59 21.73-4.134l.212.53c-11.342 4.24-24.91 16.854-24.91 38.69 0 17.49 10.706 29.15 23.532 29.15 18.974 0 28.832-17.49 28.832-43.884h-.954c0 21.942-8.162 36.464-20.246 36.464-10.6 0-17.49-7.95-17.596-21.942-.318-37.1 26.394-38.902 47.912-48.866v-.74201c-13.992 3.922-25.864 5.83001-46.534 5.83001-11.448 0-24.168-.53-22.26-8.79801zm131.587 1.06h-62.434v9.01001h25.864v70.49h10.706v-70.49h25.864zm8.32 79.50001h50.35v-9.328h-39.644v-27.878h34.98v-9.01h-34.98v-24.062h39.644v-9.22201h-50.35zm113.694-9.01v-5.194h-4.346v-5.512h-4.346v-5.724h-5.3v-9.01c10.494-2.756 16.218-9.434 16.218-23.214v-8.692h-6.784v-6.042h-9.752v-7.10201h-38.584v79.50001h10.706v-32.86h13.038 3.286v10.494h5.3v5.936h4.346v5.724h4.346v5.512h4.664v5.194h11.872v-9.01zm-30.74-32.86h-11.448v-28.62h25.758v7.102h7.95v6.148c0 13.462-7.208 15.37-22.26 15.37zm78.987-10.812 33.814-27.454v-1.166002l-2.226 1.801992h-49.078l-10.706 8.37401v27.772h44.626v34.344h-37.524v-17.702l14.734-11.978v-1.166l-29.998 24.274v1.272l4.558-3.71v9.54l10.706 8.48h28.09l19.61-16.006v-28.726h-44.096v-25.758h37.948l-20.458 16.642z" fill="#fff"/></svg>