<svg fill="none" height="100" viewBox="0 0 1935 100" width="1935" xmlns="http://www.w3.org/2000/svg" xmlns:xlink="http://www.w3.org/1999/xlink"><linearGradient id="a" gradientUnits="userSpaceOnUse" x1="967.5" x2="967.5" y1="-7" y2="107"><stop offset="0" stop-color="#0101ff"/><stop offset=".577618" stop-color="#0101ff" stop-opacity=".49"/><stop offset="1" stop-color="#0101ff" stop-opacity=".28"/></linearGradient><path d="m74.9642 2.49999h-74.213966v10.71001h30.743966v83.79h12.726v-83.79h30.744zm4.4573 94.50001v-.882c7.686-.252 12.726-8.946 12.726-21.798v-48.762c0-12.852-5.04-21.546-12.726-21.798v-.882h77.1115v.882c-47.628-.378-52.416 8.316-52.416 21.798v17.136c42.336-13.608 55.314-17.388 55.314-31.878h1.26c0 70.434 4.032 84.798 15.498 85.302v.882h-36.792v-.882c11.214-.756 15.624-12.096 15.498-68.418h-.756c-8.568 16.758-50.778 22.554-50.022 46.62.378 13.482 5.04 22.176 12.096 21.798v.882zm106.1375-14.364c0 14.616 6.174 16.254 33.012 16.254 19.656 0 33.516-5.04 33.516-15.624 0-4.788-4.284-8.82-10.08-8.82-13.734 0-8.82 19.278-24.318 19.278-19.782 0-19.152-13.356-19.152-32.256v-25.704h.504c.504 3.024 13.86 22.554 25.578 22.554 3.654 0 7.434-2.772 7.434-7.938 0-16.884-33.516 1.89-33.516-27.972 0-8.442 5.418-14.74201 13.86-14.74201 23.31 0 14.742 25.57801 26.46 25.57801 5.04 0 8.316-3.78 8.316-9.324 0-15.62401-16.128-21.42001-36.036-21.42001-21.546 0-26.712 1.638-26.712 12.47401 0 10.71 6.552 21.798 6.426 33.012-.126 11.592-5.166 23.058-5.292 34.65zm178.857-80.13601v74.59201l-42.84-74.59201h-15.246v94.50001h12.726v-74.34l43.848 74.34h14.238v-94.50001zm86.454 10.96201v-10.96201h-59.85v94.50001h59.85v-11.088h-47.124v-33.264h27.342v5.544h12.978v-10.71h-9.828v-5.544h-30.492v-28.476zm70.647 4.41-24.444 78.876h-14.238l-25.704-94.5h13.23l20.034 80.514 22.932-80.514h16.632l22.68 79.632 19.782-79.632h12.978l-25.704 94.5h-13.734zm175.568 10.08 11.718-5.418c-7.434-13.60801-19.404-20.66401-34.776-20.66401-25.074 0-41.958 19.53001-41.958 48.88801 0 28.854 16.884 48.132 41.958 48.132 16.128 0 28.476-7.812 35.028-23.184l-11.97-3.528c-4.032 11.088-12.6 16.002-23.184 16.002-17.388 0-29.106-14.994-29.106-37.548 0-22.806 11.718-38.052 29.232-38.052 9.954 0 17.766 5.292 23.058 15.372zm84.975 58.338v-6.174h-5.166v-6.552h-5.166v-6.804h-6.3v-10.71c12.474-3.276 19.278-11.214 19.278-27.594v-10.332h-8.064v-7.182h-11.592v-8.44201h-45.864v94.50001h12.726v-39.06h15.498 3.906v12.474h6.3v7.056h5.166v6.804h5.166v6.552h5.544v6.174h14.112v-10.71zm-36.54-39.06h-13.608v-34.02h30.618v8.442h9.45v7.308c0 16.002-8.568 18.27-26.46 18.27zm98.538-.378c-5.418 0-1.638 19.152-10.836 19.152-8.064 0-9.45-6.3-14.868-6.3-3.78 0-6.3 4.284-6.3 10.584 0 8.82 5.418 14.742 13.608 14.742 6.93 0 11.088-9.702 20.034-9.702 11.844 0 9.954 12.726 16.506 12.726 3.402 0 5.67-2.016 5.67-5.04 0-2.772-2.898-5.04-2.898-9.324 0-6.048 4.032-10.08 9.954-10.08s9.954 3.528 9.954 8.82c0 15.75-8.568 26.334-21.42 26.334-14.868 0-11.466-16.38-17.892-16.38s-7.686 16.128-24.444 16.128c-13.86 0-23.184-8.82-23.184-21.924 0-19.782 17.01-16.38 17.01-26.208 0-6.552-17.262-2.646-17.262-10.458 0-11.214 14.994-8.316 14.994-15.372 0-7.182-12.6-9.324-12.6-16.002 0-4.788 3.024-7.938006 7.56-7.938006 8.568 0 22.176 10.584006 30.744 10.584006 9.45 0 22.176-10.584006 30.744-10.584006 4.536 0 7.56 3.150006 7.56 7.938006 0 9.576-12.222 9.828-12.222 14.616 0 6.048 8.19 4.032 8.19 10.458 0 3.528-2.52 5.796-6.3 5.796-6.3 0-10.584-4.536-10.584-11.34 0-7.308-7.056-12.096-17.514-12.096-11.718 0-19.53 6.048-19.53 15.12 0 12.852 4.158 21.42 10.458 21.42 6.174 0 4.284-14.364 16.632-14.364 8.82 0 14.616 4.284 14.49 10.584-.126 5.292-2.394 8.82-5.796 8.82-7.434 0-3.528-10.71-10.458-10.71zm121.27 50.148h12.726l-34.524-94.50001h-13.986l-34.524 94.50001h12.222l9.576-26.586h38.934zm-44.604-37.296 15.624-43.47 15.624 43.47zm63.789-58.46401c-.882 2.52001-1.386 4.788-1.386 6.80401 0 9.072 4.032 14.112 14.238 14.238 5.665 0 16.005-1.89 25.825-4.914l.26.63c-13.49 5.04-29.613 20.034-29.613 45.99 0 20.79 12.723 34.65 27.973 34.65 22.55 0 34.27-20.79 34.27-52.164h-1.13c0 26.082-9.71 43.344-24.07 43.344-12.6 0-20.79-9.45-20.92-26.082-.37-44.1 31.38-46.242 56.96-58.086v-.88201c-16.64 4.662-30.75 6.93001-55.32 6.93001-13.605 0-28.725-.63-26.457-10.45801zm90.627 1.26v94.50001h12.73v-94.50001zm106.47.12601h-12.85v38.934h-5.55v11.088h-5.42v11.088h-6.67v11.088h-5.8v11.466h-6.68v-11.466h-5.79v-11.088h-6.68v-11.088h-5.42v-11.088h-5.54v-38.934h-12.86v42.588h5.55v10.836h5.42v11.088h6.67v11.088h5.8v11.088h5.8v7.686h19.15v-7.686h7.43v-11.088h5.8v-11.088h6.68v-11.088h5.41v-10.836h5.55zm13.86 94.374h59.85v-11.088h-47.13v-33.138h41.58v-10.71h-41.58v-28.602h47.13v-10.96201h-59.85zm116.64 0h59.85v-11.088h-47.12v-33.138h41.58v-10.71h-41.58v-28.602h47.12v-10.96201h-59.85zm134.25-70.812h14.12v-16.38h-11.6v-8.44201h-48.76v10.71001h46.24zm3.28 45.99c-4.03 11.088-12.6 16.002-23.18 16.002-17.39 0-29.11-15.876-29.11-39.69v-26.082h-12.73v26.208c0 30.114 16.89 50.274 41.96 50.274 16.13 0 28.48-7.812 35.03-23.184zm64.82 26.964c26.33 0 43.84-19.278 43.84-48.132 0-29.358-17.51-48.888-43.84-48.888-26.34 0-43.98 19.53-43.98 48.888 0 28.854 17.64 48.132 43.98 48.132zm29.35-19.152c-13.23 13.356-36.28 7.812-51.4-7.056-15.38-14.994-20.67-38.556-7.44-51.786s36.29-7.56 51.54 7.686c15.12 15.12 20.41 37.926 7.3 51.156zm85.16-77.49001v74.59201l-42.84-74.59201h-15.25v94.50001h12.73v-74.34l43.85 74.34h14.23v-94.50001zm69.32 96.64201c26.33 0 43.85-19.278 43.85-48.132 0-29.358-17.52-48.888-43.85-48.888-26.34 0-43.98 19.53-43.98 48.888 0 28.854 17.64 48.132 43.98 48.132zm29.36-19.152c-13.23 13.356-36.29 7.812-51.41-7.056-15.37-14.994-20.67-38.556-7.44-51.786s36.29-7.56 51.54 7.686c15.12 15.12 20.41 37.926 7.31 51.156zm100.4-77.49001-26.59 80.26201-26.46-80.26201h-20.29v94.50001h12.73v-80.136l26.84 78.75h13.98l27.22-79.884v81.27h12.73v-94.50001zm92.46.12601-24.07 42.714-24.06-42.588h-14.11l31.87 55.188v39.06h12.73v-39.06l31.37-55.314z" fill="url(#a)"/></svg>